<svg xmlns="http://www.w3.org/2000/svg" width="780" height="250" viewBox="0 0 780 250" role="img" aria-label="SwirPhotoClean card"><defs><linearGradient id="bg" x1="0" y1="0" x2="1" y2="1"><stop offset="0%" stop-color="#050912"/><stop offset="100%" stop-color="#0A1730"/></linearGradient><linearGradient id="accent" x1="0" y1="0" x2="1" y2="0"><stop offset="0%" stop-color="#E4F8FF"/><stop offset="55%" stop-color="#8FD7FF"/><stop offset="100%" stop-color="#2B8FFF"/></linearGradient><filter id="glow" x="-60%" y="-60%" width="220%" height="220%"><feGaussianBlur stdDeviation="4" result="b"/><feMerge><feMergeNode in="b"/><feMergeNode in="SourceGraphic"/></feMerge></filter></defs><rect width="780" height="250" rx="22" fill="url(#bg)"/><rect x="1" y="1" width="778" height="248" rx="21" fill="none" stroke="#1B6FD0" stroke-opacity="0.45"/><g opacity="0.18"><rect x="0" y="188" width="780" height="62" fill="#0E2246"/><circle cx="118" cy="90" r="56" fill="#0A1830" stroke="#2B88FF" stroke-opacity="0.35"/></g><g transform="translate(46,44)" filter="url(#glow)"><rect x="0" y="38" width="144" height="34" rx="8" fill="#0A1527" stroke="#53B4FF" stroke-opacity="0.55"/><text x="16" y="60" fill="#87D4FF" font-family="Consolas, Menlo, monospace" font-size="16">IMAGE WORKFLOW</text><rect x="24" y="98" width="122" height="82" rx="12" fill="#091321" stroke="#8FD5FF" stroke-width="3"/><circle cx="62" cy="124" r="10" fill="#123259" stroke="#8FD5FF" stroke-width="2"/><path d="M38 160 L78 128 L98 146 L120 120 L144 160 Z" fill="#123259" stroke="#8FD5FF" stroke-width="2"/><path d="M144 98 L160 82" stroke="#8FD5FF" stroke-width="3"/><path d="M160 98 L144 82" stroke="#8FD5FF" stroke-width="3"/></g><g transform="translate(242,54)"><text x="0" y="24" fill="#77C9FF" font-family="Consolas, Menlo, monospace" font-size="16" letter-spacing="2">DESKTOP IMAGE UTILITY</text><text x="0" y="72" fill="url(#accent)" font-family="Arial Black, Arial, Helvetica, sans-serif" font-size="36" font-style="italic">SWIRPHOTOCLEAN</text><text x="0" y="112" fill="#EAF8FF" font-family="Arial, Helvetica, sans-serif" font-size="19">Practical cleanup and enhancement tools for image workflows</text><g transform="translate(0,176)" font-family="Consolas, Menlo, monospace" font-size="14"><rect width="62" height="28" rx="8" fill="#0A1424" stroke="#267EEA" stroke-opacity="0.5"/><text x="17" y="19" fill="#89D4FF">PYTHON</text><rect x="74" width="66" height="28" rx="8" fill="#0A1424" stroke="#267EEA" stroke-opacity="0.5"/><text x="90" y="19" fill="#89D4FF">IMAGING</text><rect x="152" width="70" height="28" rx="8" fill="#0A1424" stroke="#267EEA" stroke-opacity="0.5"/><text x="170" y="19" fill="#89D4FF">DESKTOP</text></g></g></svg>